<?xml version="1.0" encoding="UTF-8" standalone="no"?>
<svg
   xmlns:dc="http://purl.org/dc/elements/1.1/"
   xmlns:cc="http://creativecommons.org/ns#"
   xmlns:rdf="http://www.w3.org/1999/02/22-rdf-syntax-ns#"
   xmlns:svg="http://www.w3.org/2000/svg"
   xmlns="http://www.w3.org/2000/svg"
   xmlns:sodipodi="http://sodipodi.sourceforge.net/DTD/sodipodi-0.dtd"
   xmlns:inkscape="http://www.inkscape.org/namespaces/inkscape"
   width="277.72421mm"
   height="338.66666mm"
   viewBox="0 0 277.72421 338.66666"
   version="1.1"
   id="svg2348"
   inkscape:version="1.0.1 (3bc2e813f5, 2020-09-07)"
   sodipodi:docname="Six_Flags_(1993).svg">
  <defs
     id="defs2342" />
  <sodipodi:namedview
     id="base"
     pagecolor="#ffffff"
     bordercolor="#666666"
     borderopacity="1.0"
     inkscape:pageopacity="0.0"
     inkscape:pageshadow="2"
     inkscape:zoom="0.40312501"
     inkscape:cx="524.83315"
     inkscape:cy="639.99999"
     inkscape:document-units="mm"
     inkscape:current-layer="layer1"
     inkscape:document-rotation="0"
     showgrid="false"
     inkscape:window-width="1366"
     inkscape:window-height="706"
     inkscape:window-x="-8"
     inkscape:window-y="-8"
     inkscape:window-maximized="1" />
  <metadata
     id="metadata2345">
    <rdf:RDF>
      <cc:Work
         rdf:about="">
        <dc:format>image/svg+xml</dc:format>
        <dc:type
           rdf:resource="http://purl.org/dc/dcmitype/StillImage" />
        <dc:title></dc:title>
      </cc:Work>
    </rdf:RDF>
  </metadata>
  <g
     inkscape:label="Layer 1"
     inkscape:groupmode="layer"
     id="layer1"
     transform="translate(-26.66863,-123.45308)">
    <g
       id="g2457">
      <g
         id="g2438">
        <path
           sodipodi:nodetypes="cccccccccc"
           d="m 93.666193,367.2192 c 0,0 14.331557,-39.15309 13.827967,-75.72542 -0.50361,-36.57386 -13.340927,-56.65687 -13.976766,-93.22867 -0.635838,-36.5718 10.662096,-74.81203 10.662096,-74.81203 h 136.98772 c 0,0 -11.67722,40.27093 -11.67722,77.45895 0,28.92313 11.64116,47.07897 12.91113,89.69431 1.24458,41.76347 -12.44784,79.19021 -12.44784,79.19021 l -66.31162,-22.07989 z"
           data-paper-data="{'origPos':null}"
           id="path8827"
           inkscape:connector-curvature="0"
           style="font-family:none;clip-rule:evenodd;mix-blend-mode:normal;fill:#003ca3;fill-rule:nonzero;stroke:none;stroke-width:0;stroke-linecap:butt;stroke-linejoin:miter;stroke-miterlimit:10;stroke-dasharray:none;stroke-dashoffset:0;image-rendering:optimizeQuality;shape-rendering:geometricPrecision;text-rendering:geometricPrecision" />
        <path
           sodipodi:nodetypes="cccccc"
           d="m 129.85261,357.13386 v -98.9646 l 21.1541,13.10848 -17.33411,7.0635 v 77.72796 z"
           data-paper-data="{'origPos':null}"
           id="path8839"
           inkscape:connector-curvature="0"
           style="font-family:none;clip-rule:evenodd;mix-blend-mode:normal;fill:#ffffff;fill-rule:nonzero;stroke:none;stroke-width:0;stroke-linecap:butt;stroke-linejoin:miter;stroke-miterlimit:10;stroke-dasharray:none;stroke-dashoffset:0;image-rendering:optimizeQuality;shape-rendering:geometricPrecision;text-rendering:geometricPrecision" />
        <path
           sodipodi:nodetypes="cccccc"
           d="M 143.03762,353.45912 V 169.9267 l 22.29261,13.45879 -19.09188,7.68277 v 161.4988 z"
           data-paper-data="{'origPos':null}"
           id="path8839-9"
           inkscape:connector-curvature="0"
           style="font-family:none;clip-rule:evenodd;display:inline;mix-blend-mode:normal;fill:#ffffff;fill-rule:nonzero;stroke:none;stroke-width:0;stroke-linecap:butt;stroke-linejoin:miter;stroke-miterlimit:10;stroke-dasharray:none;stroke-dashoffset:0;image-rendering:optimizeQuality;shape-rendering:geometricPrecision;text-rendering:geometricPrecision" />
        <path
           sodipodi:nodetypes="cccccc"
           d="M 155.36972,350.02209 V 207.18603 l 22.29262,13.45878 -19.09189,7.68277 v 120.80245 z"
           data-paper-data="{'origPos':null}"
           id="path8839-9-7"
           inkscape:connector-curvature="0"
           style="font-family:none;clip-rule:evenodd;display:inline;mix-blend-mode:normal;fill:#ffffff;fill-rule:nonzero;stroke:none;stroke-width:0;stroke-linecap:butt;stroke-linejoin:miter;stroke-miterlimit:10;stroke-dasharray:none;stroke-dashoffset:0;image-rendering:optimizeQuality;shape-rendering:geometricPrecision;text-rendering:geometricPrecision" />
        <path
           sodipodi:nodetypes="cccccc"
           d="M 168.41337,349.3055 V 142.87619 l 21.06653,13.45879 -17.86581,7.68277 v 186.3535 z"
           data-paper-data="{'origPos':null}"
           id="path8839-9-9"
           inkscape:connector-curvature="0"
           style="font-family:none;clip-rule:evenodd;display:inline;mix-blend-mode:normal;fill:#ffffff;fill-rule:nonzero;stroke:none;stroke-width:0;stroke-linecap:butt;stroke-linejoin:miter;stroke-miterlimit:10;stroke-dasharray:none;stroke-dashoffset:0;image-rendering:optimizeQuality;shape-rendering:geometricPrecision;text-rendering:geometricPrecision" />
        <path
           sodipodi:nodetypes="cccccc"
           d="M 181.52248,353.67046 V 187.57365 l 20.68253,13.45879 -17.4818,6.69195 v 147.01183 z"
           data-paper-data="{'origPos':null}"
           id="path8839-9-79"
           inkscape:connector-curvature="0"
           style="font-family:none;clip-rule:evenodd;display:inline;mix-blend-mode:normal;fill:#ffffff;fill-rule:nonzero;stroke:none;stroke-width:0;stroke-linecap:butt;stroke-linejoin:miter;stroke-miterlimit:10;stroke-dasharray:none;stroke-dashoffset:0;image-rendering:optimizeQuality;shape-rendering:geometricPrecision;text-rendering:geometricPrecision" />
        <path
           sodipodi:nodetypes="cccccc"
           d="M 194.42381,357.96624 V 229.37245 l 21.3018,13.58264 -18.10108,7.06351 V 359.032 Z"
           data-paper-data="{'origPos':null}"
           id="path8839-9-6"
           inkscape:connector-curvature="0"
           style="font-family:none;clip-rule:evenodd;display:inline;mix-blend-mode:normal;fill:#ffffff;fill-rule:nonzero;stroke:none;stroke-width:0;stroke-linecap:butt;stroke-linejoin:miter;stroke-miterlimit:10;stroke-dasharray:none;stroke-dashoffset:0;image-rendering:optimizeQuality;shape-rendering:geometricPrecision;text-rendering:geometricPrecision" />
      </g>
      <path
         id="path2427"
         style="font-style:normal;font-variant:normal;font-weight:normal;font-stretch:normal;font-size:112.764px;line-height:1;font-family:KabelEF-Demi;-inkscape-font-specification:KabelEF-Demi;text-align:start;letter-spacing:0px;word-spacing:0px;text-anchor:start;clip-rule:evenodd;fill:#000000;fill-opacity:1;fill-rule:evenodd;stroke:none;stroke-width:23.3401;image-rendering:optimizeQuality;shape-rendering:geometricPrecision;text-rendering:geometricPrecision"
         d="m 678.87305,1055.6113 c -13.52754,0 -24.53632,1.2621 -43.72657,5.3594 l -9.4375,35.459 c 19.19018,-6.3035 31.14435,-8.5098 44.67188,-8.5098 22.96539,0 33.6582,9.928 33.6582,23.4805 v 13.2363 c -14.78596,-8.8249 -21.70376,-11.0293 -37.74804,-11.0293 -33.97611,0 -58.51758,23.0027 -58.51758,55.1504 0,31.5175 24.85436,55.1582 57.88672,55.1582 16.6735,0 27.68539,-4.7304 41.21289,-16.707 v 13.5547 l 34.60742,-4.4141 v -96.1269 c 0,-22.0622 -2.83479,-34.9804 -9.75586,-44.4356 -9.75239,-12.9222 -28.31325,-20.1758 -52.85156,-20.1758 z m -2.83203,88.8809 c 17.30271,0 28.6289,8.5093 28.6289,22.3769 0,13.8677 -12.2658,23.9532 -29.2539,23.9532 -16.98807,0 -28.63086,-9.4554 -28.63086,-23.0078 0,-14.1828 11.324,-23.3223 29.25586,-23.3223 z"
         transform="matrix(0.26458333,0,0,0.26458333,26.66863,123.45308)" />
      <path
         id="path2425"
         style="font-style:normal;font-variant:normal;font-weight:normal;font-stretch:normal;font-size:112.764px;line-height:1;font-family:KabelEF-Demi;-inkscape-font-specification:KabelEF-Demi;text-align:start;letter-spacing:0px;word-spacing:0px;text-anchor:start;clip-rule:evenodd;fill:#000000;fill-opacity:1;fill-rule:evenodd;stroke:none;stroke-width:23.3401;image-rendering:optimizeQuality;shape-rendering:geometricPrecision;text-rendering:geometricPrecision"
         d="m 928.90039,1046.7129 -6.09961,1.5801 c -26.98118,6.9543 -34.69068,8.5371 -50.42969,8.5371 -4.8181,0 -9.31283,-0.317 -14.13086,-0.9492 l -10.60156,-0.9493 c -5.13925,-0.6321 -9.95819,-0.9453 -14.45508,-0.9453 -42.72019,0 -73.23437,26.5531 -73.23437,63.8535 0,8.851 2.24621,17.7029 6.42187,25.6055 6.74525,12.6442 13.17159,18.0153 30.83789,25.918 l -6.74804,19.916 c 18.62986,-7.2704 25.05562,-8.8555 35.97656,-8.8555 26.33881,0 44.64844,13.5935 44.64844,33.8242 0,17.3858 -17.34717,30.0293 -41.4375,30.0293 -20.2359,0 -32.44116,-5.6883 -50.10742,-23.0742 l -24.73047,24.3418 c 3.85447,4.1094 6.74657,6.953 8.67383,8.8496 17.98741,16.7536 40.79191,25.6055 66.48828,25.6055 46.89588,0 80.61914,-26.5548 80.61914,-63.5391 0,-22.1273 -10.59505,-38.2461 -34.04297,-50.5742 22.80552,-10.4314 33.72461,-26.2366 33.72461,-48.9961 0,-14.857 -2.88883,-21.497 -14.77344,-34.7734 5.13925,0.9483 7.38489,0.9492 11.56055,0.9492 4.17566,0 6.42638,-9e-4 12.52929,-0.9492 z m -93.14844,38.5664 c 19.59345,0 34.69141,13.5911 34.69141,31.293 0,19.5985 -15.09331,33.8222 -35.65039,33.8222 -20.23589,0 -35.01563,-13.9066 -35.01563,-32.873 0,-18.6502 14.77509,-32.2422 35.97461,-32.2422 z"
         transform="matrix(0.26458333,0,0,0.26458333,26.66863,123.45308)" />
      <path
         style="font-style:normal;font-variant:normal;font-weight:normal;font-stretch:normal;font-size:112.764px;line-height:1;font-family:KabelEF-Demi;-inkscape-font-specification:KabelEF-Demi;text-align:start;letter-spacing:0px;word-spacing:0px;text-anchor:start;clip-rule:evenodd;fill:#000000;fill-opacity:1;fill-rule:evenodd;stroke:none;stroke-width:6.1754;image-rendering:optimizeQuality;shape-rendering:geometricPrecision;text-rendering:geometricPrecision"
         d="m 80.236576,403.07285 -10.342031,1.17074 V 446.062 l 10.342031,-0.62896 z"
         id="path2423" />
      <path
         style="font-style:normal;font-variant:normal;font-weight:normal;font-stretch:normal;font-size:112.764px;line-height:1;font-family:KabelEF-Demi;-inkscape-font-specification:KabelEF-Demi;text-align:start;letter-spacing:0px;word-spacing:0px;text-anchor:start;clip-rule:evenodd;fill:#000000;fill-opacity:1;fill-rule:evenodd;stroke:none;stroke-width:6.1754;image-rendering:optimizeQuality;shape-rendering:geometricPrecision;text-rendering:geometricPrecision"
         d="m 288.38884,402.77798 c -9.00213,0 -15.33729,5.45289 -15.33729,13.13671 0,6.52711 3.91784,10.65899 12.08653,12.88978 l 4.50139,1.15621 c 3.33415,0.90884 4.41715,1.81802 4.41715,3.63569 0,2.72653 -2.66659,4.79191 -6.16745,4.79191 -3.58426,0 -6.41944,-1.40554 -9.33688,-4.62777 l -6.58433,6.52767 c 4.25101,4.46157 9.335,6.60903 15.66992,6.60903 9.75233,0 16.75496,-5.78221 16.75496,-13.96175 0,-3.47011 -1.50004,-6.52799 -4.16731,-8.75876 -2.08384,-1.81768 -3.08523,-2.23097 -7.83641,-3.5529 l -3.16653,-0.82649 c -4.58446,-1.23932 -5.91906,-2.31291 -5.91906,-4.62631 0,-2.23079 2.08396,-3.79983 5.16811,-3.79983 2.83404,0 5.66831,1.40449 7.75216,4.131 l 7.16825,-5.70119 c -4.08426,-4.79205 -8.75163,-7.023 -15.00321,-7.023 z"
         id="path2421" />
      <path
         style="font-style:normal;font-variant:normal;font-weight:normal;font-stretch:normal;font-size:112.764px;line-height:1;font-family:KabelEF-Demi;-inkscape-font-specification:KabelEF-Demi;text-align:start;letter-spacing:0px;word-spacing:0px;text-anchor:start;clip-rule:evenodd;fill:#000000;fill-opacity:1;fill-rule:evenodd;stroke:none;stroke-width:6.1754;image-rendering:optimizeQuality;shape-rendering:geometricPrecision;text-rendering:geometricPrecision"
         d="m 95.817892,402.37418 -9.8656,3.01981 12.539713,18.02593 -14.295825,19.8721 9.865601,3.52239 10.199679,-15.17606 10.11544,15.17606 9.69856,-3.52239 -14.21303,-19.8721 12.45691,-18.02593 -9.78135,-3.01981 -8.27653,13.08151 z"
         id="path2417" />
      <path
         style="font-style:normal;font-variant:normal;font-weight:normal;font-stretch:normal;font-size:112.764px;line-height:1;font-family:KabelEF-Demi;-inkscape-font-specification:KabelEF-Demi;text-align:start;letter-spacing:0px;word-spacing:0px;text-anchor:start;clip-rule:evenodd;fill:#000000;fill-opacity:1;fill-rule:evenodd;stroke:none;stroke-width:6.1754;image-rendering:optimizeQuality;shape-rendering:geometricPrecision;text-rendering:geometricPrecision"
         d="m 138.46861,389.19535 v 57.76868 l 10.78795,-1.18091 v -22.75974 h 14.75483 v -10.37544 h -14.75483 v -12.99145 h 20.06819 l -2.37925,-10.46114 z"
         id="path2413" />
      <path
         style="font-style:normal;font-variant:normal;font-weight:normal;font-stretch:normal;font-size:112.764px;line-height:1;font-family:KabelEF-Demi;-inkscape-font-specification:KabelEF-Demi;text-align:start;letter-spacing:0px;word-spacing:0px;text-anchor:start;clip-rule:evenodd;fill:#000000;fill-opacity:1;fill-rule:evenodd;stroke:none;stroke-width:6.1754;image-rendering:optimizeQuality;shape-rendering:geometricPrecision;text-rendering:geometricPrecision"
         d="m 182.49777,388.03333 -9.98035,1.1809 V 446.062 l 9.98035,-0.53744 z"
         id="path2411" />
      <path
         style="font-style:normal;font-variant:normal;font-weight:normal;font-stretch:normal;font-size:112.764px;line-height:1;font-family:KabelEF-Demi;-inkscape-font-specification:KabelEF-Demi;text-align:start;letter-spacing:0px;word-spacing:0px;text-anchor:start;clip-rule:evenodd;fill:#000000;fill-opacity:1;fill-rule:evenodd;stroke:none;stroke-width:6.1754;image-rendering:optimizeQuality;shape-rendering:geometricPrecision;text-rendering:geometricPrecision"
         d="m 45.799935,387.36226 c -10.442318,0 -18.01576,7.22952 -18.01576,17.18055 0,7.7397 4.384538,13.35192 12.594909,16.24367 l 4.225418,1.44673 c 6.137845,2.21133 7.811719,3.74148 7.811719,7.14355 0,3.91237 -3.188403,6.54947 -7.811719,6.54947 -4.384178,0 -7.573139,-1.87113 -10.681925,-6.29382 l -7.253947,7.91049 c 5.819002,7.39949 9.64487,9.35431 18.174087,9.35431 10.761169,0 18.653422,-7.48341 18.653422,-17.77464 0,-8.84538 -4.624056,-14.20459 -15.385224,-17.8618 l -4.941516,-1.70091 c -2.630502,-0.85052 -4.305306,-2.97679 -4.305306,-5.52834 0,-3.40206 2.869763,-5.78253 7.253947,-5.78253 3.347911,0 5.420316,1.02057 8.449382,3.99737 l 1.116997,1.10538 7.253947,-7.56915 c -5.659575,-6.71908 -9.087477,-8.42033 -17.138431,-8.42033 z"
         id="path2409" />
      <path
         style="font-style:normal;font-variant:normal;font-weight:normal;font-stretch:normal;font-size:112.764px;line-height:1;font-family:KabelEF-Demi;-inkscape-font-specification:KabelEF-Demi;text-align:start;letter-spacing:0px;word-spacing:0px;text-anchor:start;clip-rule:evenodd;fill:#000000;fill-opacity:1;fill-rule:evenodd;stroke:none;stroke-width:6.1754;image-rendering:optimizeQuality;shape-rendering:geometricPrecision;text-rendering:geometricPrecision"
         d="M 69.80594,385.04837 69.670855,399.228 83.600641,392.19774 Z"
         id="path49" />
    </g>
  </g>
</svg>
